<?xml version="1.0" standalone="no"?>
<!DOCTYPE svg PUBLIC "-//W3C//DTD SVG 20010904//EN"
 "http://www.w3.org/TR/2001/REC-SVG-20010904/DTD/svg10.dtd">
<svg version="1.0" xmlns="http://www.w3.org/2000/svg"
 width="2363.000000pt" height="2363.000000pt" viewBox="0 0 2363.000000 2363.000000"
 preserveAspectRatio="xMidYMid meet">

<g transform="translate(0.000000,2363.000000) scale(0.100000,-0.100000)"
fill="#000000" stroke="none">
<path d="M11463 20399 c-198 -171 -333 -433 -333 -647 0 -55 -3 -73 -12 -69
-127 55 -164 68 -218 76 -131 21 -261 -22 -355 -118 l-49 -51 40 0 c100 0 249
-61 332 -135 110 -99 154 -209 155 -385 1 -270 -92 -492 -292 -690 -186 -185
-449 -316 -730 -365 -415 -73 -765 39 -939 299 -70 105 -87 159 -86 281 0 108
20 179 95 343 l34 74 -25 18 c-42 32 -200 107 -285 134 -260 85 -524 87 -769
5 -50 -16 -98 -34 -105 -38 -10 -7 136 -230 579 -887 326 -484 613 -907 636
-940 l43 -62 128 45 c349 122 763 216 1043 237 68 5 54 1 -135 -48 -934 -239
-1722 -681 -2393 -1340 -274 -270 -469 -503 -671 -801 -508 -752 -797 -1570
-882 -2495 -16 -174 -16 -686 0 -860 68 -747 267 -1421 602 -2042 254 -470
528 -838 914 -1223 415 -416 821 -711 1335 -969 280 -142 544 -249 816 -331
205 -62 498 -135 646 -160 262 -44 630 -75 902 -75 109 0 127 2 122 15 -56
147 -142 558 -180 860 -71 562 -68 1008 9 1391 65 325 231 641 466 891 137
145 187 236 196 353 10 148 -44 286 -157 400 -86 85 -167 140 -443 299 -261
151 -397 238 -502 323 -118 94 -211 234 -250 374 -15 55 -34 315 -22 304 3 -3
13 -38 21 -78 62 -296 419 -601 951 -812 326 -129 535 -277 664 -471 117 -175
146 -372 80 -543 l-20 -51 51 50 c104 102 197 263 242 421 33 119 31 272 -6
379 -55 161 -148 280 -311 400 -43 33 -188 125 -321 205 -133 81 -284 179
-335 217 -256 194 -456 434 -526 634 -22 63 -26 92 -27 194 -1 112 1 124 27
177 41 83 132 140 297 187 45 12 125 50 209 98 l136 78 -60 6 c-37 4 -91 20
-142 42 -49 23 -97 37 -120 37 -45 0 -124 -25 -200 -64 -74 -37 -89 -34 -113
17 -70 151 -140 340 -140 375 0 67 72 147 205 226 63 39 105 45 125 21 15 -18
18 -91 7 -157 -10 -59 5 -63 58 -17 32 28 35 36 35 83 0 28 -3 81 -7 119 l-6
67 -32 0 c-88 0 -224 -51 -353 -133 -35 -21 -66 -37 -69 -33 -4 4 23 36 60 71
76 75 56 69 -38 -11 -36 -30 -67 -54 -70 -54 -28 0 47 87 129 147 82 61 55 54
-45 -12 -86 -56 -109 -65 -109 -42 0 24 62 107 111 150 190 164 412 214 628
141 120 -40 236 -121 311 -215 61 -77 51 -105 -19 -50 -20 15 -52 36 -71 45
l-35 17 30 -26 c131 -117 199 -198 150 -179 -8 4 -15 10 -15 14 0 5 -19 23
-41 41 l-42 33 47 -63 c25 -35 46 -67 46 -72 0 -27 -30 -12 -96 50 -87 81
-179 131 -298 161 -100 25 -136 26 -136 3 1 -32 37 -99 65 -121 36 -29 95 -29
120 -2 10 11 28 20 41 20 30 0 116 -66 174 -135 l48 -56 7 -99 c8 -114 1 -185
-26 -288 -41 -154 -92 -221 -213 -281 -47 -23 -97 -56 -112 -74 l-27 -32 46
-3 c25 -2 85 6 132 17 48 12 88 21 91 21 2 0 4 -19 4 -42 0 -111 83 -315 165
-406 64 -71 114 -97 218 -117 102 -18 245 -64 314 -99 87 -44 207 -157 309
-291 52 -68 48 -68 -34 -2 -228 184 -542 292 -1087 372 -270 39 -409 96 -486
198 -36 49 -34 26 7 -60 61 -127 153 -181 600 -351 559 -213 621 -240 774
-340 47 -31 126 -97 176 -147 75 -74 98 -105 132 -175 73 -152 91 -340 47
-505 -21 -81 -81 -203 -147 -302 l-56 -83 100 -97 c55 -54 166 -168 247 -253
l148 -155 -72 -310 c-39 -170 -75 -323 -79 -339 -7 -27 -9 -25 -58 57 -137
231 -357 467 -588 633 l-55 39 46 -60 c242 -315 431 -742 515 -1164 51 -258
112 -1058 117 -1534 l2 -195 90 33 c415 150 805 349 1170 596 300 203 535 400
801 672 409 416 699 825 954 1342 283 573 447 1147 516 1800 23 210 26 769 6
970 -68 685 -228 1252 -522 1850 -192 391 -397 707 -667 1030 -642 769 -1471
1329 -2418 1635 -134 43 -443 126 -535 143 -63 11 119 5 235 -8 265 -31 670
-129 962 -234 l113 -40 217 322 c120 177 405 601 635 941 l418 620 -55 22
c-256 104 -552 111 -832 19 -92 -31 -233 -95 -290 -132 l-23 -15 38 -28 c46
-33 93 -105 118 -180 29 -84 25 -233 -8 -327 -79 -222 -289 -399 -556 -465
-122 -31 -353 -31 -498 0 -269 58 -515 182 -698 353 -187 175 -283 364 -305
598 -20 221 27 373 152 488 74 68 161 106 295 128 l77 12 -53 51 c-76 73 -147
104 -247 110 -99 5 -170 -9 -256 -51 l-66 -32 -7 85 c-12 173 -84 351 -202
498 -54 68 -173 182 -189 182 -2 0 -25 -19 -52 -41z m134 -2069 c54 -84 125
-161 207 -226 41 -32 73 -60 71 -62 -2 -2 -41 1 -87 7 -191 26 -381 25 -603
-5 l-40 -5 30 22 c127 97 267 266 315 383 l24 56 24 -57 c13 -31 40 -82 59
-113z m254 -881 c654 -51 1261 -215 1834 -494 393 -192 750 -428 1095 -724
156 -134 471 -457 601 -616 673 -822 1057 -1783 1139 -2844 13 -173 13 -569 0
-742 -73 -947 -390 -1822 -935 -2578 -575 -799 -1361 -1411 -2273 -1770 l-53
-21 3 31 c3 29 9 33 123 80 290 119 673 328 932 509 1127 787 1877 1973 2097
3315 47 285 60 466 60 805 0 350 -14 526 -65 832 -211 1261 -899 2389 -1934
3173 -854 647 -1924 1005 -3005 1005 -1328 0 -2598 -527 -3540 -1470 -698
-697 -1175 -1582 -1369 -2541 -72 -352 -96 -600 -96 -999 0 -321 9 -460 46
-715 119 -823 446 -1611 946 -2280 683 -913 1652 -1564 2761 -1855 35 -9 42
-15 42 -35 0 -13 -3 -26 -8 -29 -13 -8 -372 100 -538 163 -390 145 -696 301
-1034 526 -579 384 -1051 856 -1435 1435 -449 676 -711 1400 -812 2245 -22
190 -26 851 -5 1040 82 747 287 1393 637 2007 543 949 1397 1716 2390 2146
499 216 1068 358 1610 401 160 12 629 13 786 0z m-456 -441 c50 -97 96 -183
103 -191 18 -21 -4 -27 -94 -27 -76 0 -89 8 -53 33 20 14 20 16 5 46 -16 30
-18 31 -91 31 l-74 0 -10 -32 c-7 -29 -5 -36 15 -53 13 -12 24 -24 24 -28 0
-4 -34 -7 -75 -7 -41 0 -75 3 -75 7 0 3 6 14 14 22 8 9 42 85 76 170 l61 154
-22 23 -21 23 38 4 c90 10 81 18 179 -175z m377 172 c127 -12 188 -43 225
-113 15 -30 20 -110 8 -149 -12 -40 -54 -87 -98 -111 -38 -20 -54 -22 -181
-20 -76 1 -141 5 -144 8 -3 3 5 16 18 30 21 22 24 39 33 170 9 130 8 147 -6
163 -10 10 -17 22 -17 25 0 9 46 8 162 -3z m-767 -61 c4 -27 5 -53 1 -56 -3
-3 -24 9 -48 26 -48 35 -103 43 -94 14 2 -10 13 -79 23 -153 16 -125 20 -137
46 -161 l29 -26 -77 -12 c-119 -17 -137 -14 -97 22 18 16 18 22 -4 169 -12 84
-23 154 -23 156 -1 1 -10 2 -20 2 -11 0 -38 -21 -60 -47 -22 -26 -42 -45 -45
-42 -3 3 -8 31 -12 62 l-7 57 51 0 c54 0 237 25 288 39 16 4 32 7 36 5 3 -2 9
-27 13 -55z m1464 -35 c76 -38 106 -88 106 -173 0 -82 -30 -141 -93 -185 -37
-26 -51 -30 -110 -30 -165 0 -264 120 -223 270 12 46 62 107 106 129 50 25
152 20 214 -11z m-1991 -23 c15 -9 7 -77 -10 -87 -5 -4 -30 8 -54 26 -44 31
-69 33 -101 8 -17 -14 -16 -53 2 -68 8 -6 47 -16 87 -21 124 -15 158 -41 158
-120 0 -89 -80 -149 -199 -149 -37 0 -71 4 -78 8 -14 9 -7 79 9 88 5 4 30 -8
54 -26 43 -31 46 -31 87 -18 38 12 42 16 45 50 4 45 -11 55 -94 64 -123 12
-164 42 -164 119 0 81 74 135 185 135 33 0 66 -4 73 -9z m-416 -126 c9 -24 13
-47 8 -50 -4 -3 -25 2 -46 11 -38 16 -118 13 -129 -5 -3 -7 31 -127 40 -139 7
-9 75 31 80 47 3 11 12 24 19 30 11 10 18 0 35 -50 l20 -61 -27 7 c-36 10 -93
8 -103 -2 -8 -8 25 -128 40 -145 3 -4 25 1 48 12 29 13 49 32 68 64 15 25 30
46 34 46 11 0 33 -92 24 -100 -12 -11 -293 -103 -298 -98 -3 2 0 18 6 34 9 25
4 48 -36 165 -38 111 -51 139 -71 148 -13 6 -24 14 -24 19 0 4 46 23 103 41
56 19 118 42 137 52 50 26 54 24 72 -26z m3118 -65 c96 -49 139 -147 105 -238
-35 -92 -112 -139 -214 -129 -57 5 -251 73 -251 88 0 4 12 11 26 16 23 8 34
28 79 148 48 128 51 142 39 166 -7 15 -11 29 -8 31 6 6 168 -54 224 -82z m408
-173 c59 -30 123 -59 140 -65 l32 -11 -22 -46 c-12 -25 -25 -45 -29 -45 -4 0
-15 20 -25 45 -13 30 -30 50 -55 65 -20 11 -39 20 -43 20 -7 0 -69 -121 -64
-125 20 -17 67 -31 83 -24 52 20 56 12 28 -46 -15 -30 -31 -55 -36 -55 -4 0
-13 14 -19 30 -8 25 -51 60 -72 60 -3 0 -21 -31 -41 -69 l-35 -70 46 -17 c39
-15 53 -15 96 -5 28 6 53 9 55 7 7 -7 -37 -86 -47 -86 -6 0 -74 32 -153 72
l-142 71 32 14 c28 11 43 32 99 144 58 116 64 134 55 160 -5 16 -6 29 -1 29 5
0 58 -24 118 -53z m-4292 -61 c-6 -30 3 -55 60 -168 36 -73 68 -135 71 -138 2
-2 19 4 38 14 29 16 38 29 51 78 9 32 20 58 25 58 5 0 20 -22 34 -50 l25 -49
-22 -15 c-49 -31 -257 -130 -263 -124 -3 3 -1 16 4 30 8 20 -2 46 -57 156 -56
110 -72 133 -96 142 -16 6 -26 13 -23 17 11 10 141 81 151 82 4 1 5 -15 2 -33z
m2704 -45 c498 -68 902 -189 1335 -402 1107 -542 1942 -1578 2234 -2769 89
-366 115 -596 116 -1020 0 -359 -10 -483 -61 -760 -206 -1124 -856 -2114
-1804 -2745 -146 -97 -325 -205 -341 -205 -7 0 6 60 13 65 2 1 55 32 118 70
574 340 1084 849 1432 1428 805 1341 794 3017 -30 4344 -348 560 -841 1044
-1407 1382 -433 259 -918 440 -1404 526 -274 48 -415 59 -731 59 -217 0 -334
-5 -442 -17 -504 -60 -928 -181 -1357 -388 -210 -102 -310 -158 -501 -285
-1000 -662 -1669 -1722 -1829 -2900 -149 -1092 131 -2186 782 -3057 524 -700
1247 -1221 2060 -1483 86 -28 95 -35 77 -64 -8 -12 -24 -10 -112 19 -1048 340
-1958 1125 -2459 2122 -217 433 -365 942 -421 1444 -17 159 -18 741 0 890 136
1162 687 2157 1592 2875 606 481 1341 784 2120 874 206 24 204 24 545 21 256
-3 351 -8 475 -24z m-2965 -108 c14 -21 25 -42 25 -46 0 -5 -22 -6 -49 -2 -39
5 -57 2 -90 -15 -38 -19 -40 -22 -30 -43 27 -49 62 -97 73 -97 22 1 54 37 61
68 3 18 10 32 15 32 8 0 70 -91 70 -103 0 -4 -17 -4 -39 -1 -28 4 -46 1 -65
-11 -31 -20 -31 -22 19 -99 l36 -57 39 28 c30 22 41 39 52 77 7 27 18 51 23
53 10 3 60 -75 53 -82 -7 -8 -270 -175 -274 -175 -2 0 -2 17 1 38 4 33 -3 49
-73 157 -64 99 -82 121 -105 123 -15 2 -27 7 -27 12 0 5 51 43 114 83 62 41
116 80 120 86 12 19 24 12 51 -26z m2675 -107 c-25 -13 -571 -284 -1213 -601
-1048 -518 -1170 -576 -1184 -562 -18 17 -102 -52 770 632 322 253 584 461
582 463 -5 5 -117 -20 -140 -31 -11 -6 -301 -230 -643 -499 -379 -297 -629
-487 -638 -484 -8 3 -14 10 -14 15 0 6 132 169 294 363 161 194 292 355 290
357 -3 3 -35 -10 -72 -28 -65 -32 -73 -40 -317 -337 -137 -166 -256 -303 -263
-304 -32 -1 -17 42 77 220 56 105 101 195 101 199 0 11 157 105 302 181 375
196 839 344 1268 404 198 28 287 33 570 34 l275 1 -45 -23z m283 -6 c354 -45
752 -153 1057 -287 37 -17 40 -20 20 -21 -14 0 -848 -217 -1854 -482 -1007
-264 -1836 -478 -1843 -476 -7 3 -13 11 -13 19 0 7 528 273 1256 632 l1256
620 -59 6 c-51 5 -53 6 -16 7 23 1 111 -7 196 -18z m2253 -56 c45 -27 114
-103 114 -125 0 -11 -80 -52 -87 -45 -3 3 -8 31 -12 63 -5 51 -9 59 -35 72
-83 39 -206 -72 -206 -188 0 -36 6 -49 34 -77 19 -19 40 -34 48 -34 7 0 23 16
36 36 18 27 21 43 16 71 -8 41 -11 42 85 -26 l64 -45 -29 -12 c-18 -7 -48 -38
-73 -73 -23 -34 -44 -61 -47 -61 -3 0 -11 15 -19 34 -12 28 -21 34 -54 40 -50
8 -118 60 -145 110 -51 100 8 236 124 285 46 20 134 8 186 -25z m-5546 -146
c88 -60 121 -152 86 -241 -21 -54 -42 -77 -146 -161 l-85 -69 -5 40 c-5 30
-26 64 -90 144 -94 117 -96 119 -127 119 -13 0 -23 3 -23 8 1 12 177 146 217
164 55 25 132 23 173 -4z m5871 -110 c32 -29 59 -56 59 -60 0 -5 -13 -8 -28
-8 -23 0 -42 -16 -103 -85 -80 -92 -100 -137 -81 -180 14 -30 63 -54 98 -47
15 3 59 41 107 93 74 80 81 91 79 123 -2 20 -1 36 3 36 10 0 105 -82 105 -92
0 -4 -13 -8 -28 -8 -23 0 -45 -18 -112 -91 -92 -101 -131 -124 -191 -114 -43
7 -121 70 -144 116 -35 67 -15 116 95 239 58 63 67 79 63 103 -8 40 10 34 78
-25z m-1276 -92 c330 -170 655 -398 905 -635 l85 -80 -37 -1 c-20 0 -1098 -58
-2396 -130 -1299 -71 -2381 -130 -2407 -130 -32 0 -47 5 -52 15 -3 9 -4 17 -2
19 2 2 846 225 1874 495 1029 270 1877 494 1885 497 12 4 9 9 -10 19 -14 8
-21 14 -16 15 5 0 82 -38 171 -84z m-4067 -263 c-8 -10 -48 -80 -87 -155 -40
-76 -75 -138 -79 -138 -27 1 -28 20 -2 109 l26 94 75 53 c81 58 90 63 67 37z
m-1088 -41 c36 -18 64 -43 88 -77 32 -47 34 -54 30 -117 -3 -55 -9 -75 -34
-110 -59 -85 -150 -127 -231 -106 -51 12 -124 73 -147 122 -38 81 -10 185 71
256 75 66 141 75 223 32z m6856 -13 l42 -41 -79 -180 c-43 -100 -79 -192 -79
-204 0 -13 -3 -24 -7 -24 -9 0 -123 126 -123 136 0 3 14 4 31 0 27 -5 31 -3
45 31 l15 36 -52 53 c-51 52 -53 53 -81 38 -21 -11 -28 -22 -28 -44 0 -17 -4
-30 -9 -30 -11 0 -91 91 -91 103 0 4 10 7 22 7 12 0 93 24 180 52 153 51 158
53 158 80 0 16 3 28 7 28 4 0 26 -18 49 -41z m-5926 -53 c0 -2 -8 -10 -17 -17
-16 -13 -17 -12 -4 4 13 16 21 21 21 13z m-63 -54 c-9 -10 -23 -36 -30 -58
-10 -27 -21 -40 -35 -42 -15 -2 -22 2 -22 13 0 10 -5 13 -12 9 -19 -11 -9 -1
52 50 58 48 74 58 47 28z m6293 -263 c0 -8 -20 -86 -44 -173 l-43 -157 36 33
c118 107 131 123 131 150 0 38 9 35 48 -17 49 -68 52 -79 14 -70 -29 6 -45 -3
-173 -95 -132 -96 -141 -101 -154 -84 -8 11 -15 22 -15 26 0 4 22 86 49 183
36 132 45 173 32 163 -110 -91 -171 -152 -171 -173 0 -13 -4 -26 -9 -29 -8 -5
-81 92 -81 108 0 5 12 6 28 3 22 -5 49 9 145 71 106 70 118 81 128 117 l11 40
34 -40 c18 -22 34 -47 34 -56z m-7616 19 c6 -28 26 -46 142 -128 74 -52 137
-97 139 -100 2 -3 -3 -14 -11 -25 -13 -18 -34 -21 -202 -30 l-187 -10 105 -62
c89 -51 110 -60 139 -56 38 6 39 8 -17 -70 -35 -49 -51 -50 -52 -2 -1 13 -37
48 -108 102 -95 73 -112 83 -149 83 -24 0 -43 3 -43 6 0 3 14 25 31 48 l30 43
97 6 c53 4 125 7 159 7 34 0 65 4 68 10 3 5 -35 30 -86 55 -71 36 -97 45 -120
40 -16 -4 -29 -4 -29 0 0 10 74 115 81 115 4 0 10 -15 13 -32z m1380 -67 c72
-35 132 -95 168 -169 19 -39 23 -63 23 -142 0 -84 -3 -101 -28 -148 -62 -118
-179 -192 -316 -199 l-76 -4 66 23 c166 59 253 173 253 333 1 68 -4 90 -28
142 -34 74 -102 143 -179 179 l-52 25 52 -4 c32 -2 78 -17 117 -36z m5266 -56
c0 -9 -49 -241 -110 -516 -60 -275 -110 -502 -110 -504 0 -2 -17 -9 -37 -15
-33 -10 -165 9 -1003 144 -530 85 -966 153 -968 152 -1 -2 4 -19 13 -38 l17
-34 866 -138 c477 -77 870 -142 874 -145 4 -3 -158 -60 -360 -125 -437 -142
-495 -167 -578 -250 -63 -64 -129 -169 -140 -225 -5 -24 -11 -31 -23 -26 -9 3
-122 47 -252 97 l-236 90 -7 97 c-18 272 -107 558 -213 688 -61 76 -175 154
-298 204 -67 27 -69 28 -32 29 82 0 215 -63 308 -147 l42 -38 -23 45 c-32 63
-136 160 -217 202 -106 56 -172 72 -293 72 -171 -1 -309 -49 -412 -143 l-53
-48 -830 133 c-456 74 -836 134 -843 134 -8 0 -12 9 -10 23 l3 22 2455 136
c1350 75 2458 137 2463 138 4 0 7 -6 7 -14z m-5980 -325 c0 -11 -6 -20 -14
-20 -8 0 -22 -3 -32 -7 -16 -6 -16 -4 2 20 23 31 44 35 44 7z m7277 -52 l25
-46 -111 -152 c-62 -83 -117 -166 -125 -183 l-12 -32 -44 75 c-23 41 -45 79
-48 84 -3 5 11 6 31 2 30 -6 38 -3 54 20 l20 27 -36 64 c-34 60 -38 63 -66 57
-42 -9 -45 -12 -45 -40 0 -13 -4 -24 -9 -24 -10 0 -71 101 -71 116 0 5 30 9
68 10 37 0 120 6 185 13 111 13 119 15 128 38 12 33 26 26 56 -29z m-8165 3
c27 -24 33 -36 33 -70 l0 -41 60 5 c33 3 84 8 113 11 l53 6 -30 -54 -30 -53
-103 -5 c-123 -6 -136 -20 -60 -62 41 -23 54 -26 80 -18 18 5 32 5 32 0 0 -7
-76 -147 -86 -159 -1 -2 -9 12 -17 31 -12 29 -34 45 -137 102 -105 58 -127 67
-156 61 -19 -3 -34 -3 -34 1 0 19 119 214 147 242 45 42 90 43 135 3z m2740
-126 c431 -69 794 -128 808 -131 l25 -5 -41 -84 c-22 -46 -53 -125 -67 -176
-14 -50 -28 -94 -31 -96 -5 -6 -1495 565 -1510 578 -12 11 0 39 18 39 8 0 367
-56 798 -125z m4595 -45 c82 -122 134 -211 131 -222 -2 -6 -31 34 -63 88 -33
54 -88 138 -122 186 -35 49 -63 94 -63 100 0 13 48 -49 117 -152z m-6418 97
c-17 -14 -239 -126 -239 -121 0 3 19 32 41 65 33 46 50 61 78 68 112 29 105
29 115 9 5 -10 7 -20 5 -21z m1741 -327 c414 -159 754 -291 756 -293 2 -2 -7
-50 -20 -108 -13 -57 -29 -144 -36 -194 -7 -49 -14 -91 -15 -93 -3 -3 -1436
926 -1454 943 -13 13 -8 35 8 35 5 0 347 -130 761 -290z m-1698 250 c0 -5 1
-14 2 -20 1 -9 -506 -430 -512 -424 -6 4 84 173 120 228 30 45 47 56 203 137
94 49 173 89 178 89 4 0 8 -4 9 -10z m1633 -541 l740 -479 -11 -162 c-7 -90
-18 -181 -24 -203 -16 -54 -60 -145 -69 -145 -8 0 -1351 1365 -1398 1420 -20
25 -23 33 -13 45 7 8 17 12 24 8 6 -3 344 -221 751 -484z m-1599 377 c-26 -31
-52 -56 -57 -56 -5 0 -9 -6 -9 -14 0 -11 -715 -913 -765 -965 -35 -36 152 503
200 580 6 8 154 133 330 277 277 227 322 260 334 247 12 -12 8 -21 -33 -69z
m1283 -506 c283 -289 603 -614 710 -722 l196 -198 -18 -27 c-60 -94 -126 -257
-141 -349 -5 -29 -19 -52 -47 -80 -23 -23 -42 -34 -47 -29 -5 6 -253 398 -550
872 -415 659 -542 869 -542 893 0 24 -7 35 -33 50 -53 32 -98 130 -54 118 7
-2 243 -239 526 -528z m-2549 405 c2 -5 -15 -21 -38 -33 -27 -15 -50 -38 -63
-63 l-20 -39 23 -9 c13 -5 44 -18 70 -29 l47 -21 11 35 c9 25 9 43 1 66 -6 17
-9 33 -7 36 7 6 116 -40 116 -49 0 -3 -14 -12 -30 -19 -26 -11 -60 -53 -60
-75 0 -6 126 -65 140 -65 4 0 13 21 20 46 11 39 11 53 -2 94 -9 27 -13 51 -11
54 5 4 79 -28 92 -40 6 -6 -121 -294 -130 -294 -5 0 -11 11 -15 24 -5 19 -31
35 -145 85 -122 53 -142 59 -164 49 -14 -6 -28 -9 -30 -6 -3 3 14 50 38 105
24 55 50 117 57 139 7 21 14 42 17 46 4 9 78 -24 83 -37z m8377 -39 c4 -3 -8
-26 -25 -50 -36 -50 -39 -68 -16 -90 24 -25 47 -20 176 36 101 44 122 57 130
80 6 15 13 28 17 28 9 0 81 -157 74 -163 -2 -3 -16 0 -31 5 -24 9 -44 4 -144
-41 -64 -28 -129 -51 -145 -51 -91 0 -165 131 -136 239 5 21 10 23 50 18 24
-2 47 -7 50 -11z m-7134 -117 l6 -65 -474 -953 c-261 -525 -477 -956 -480
-959 -9 -9 -5 343 6 475 11 138 51 418 72 497 10 41 74 125 432 572 246 307
422 518 426 511 3 -7 9 -42 12 -78z m1362 -844 c290 -462 533 -847 538 -856 9
-14 -7 -36 -84 -118 -52 -55 -137 -157 -189 -225 -52 -69 -98 -125 -101 -125
-3 -1 -174 454 -379 1011 l-373 1012 18 71 c21 81 25 90 35 78 4 -4 245 -386
535 -848z m5362 569 c-6 -7 -287 39 -287 46 0 3 53 22 118 42 l117 36 28 -60
c15 -33 26 -62 24 -64z m846 34 c14 -43 22 -78 17 -78 -5 0 -20 5 -34 11 -35
16 -237 -51 -267 -89 -27 -35 -20 -88 16 -119 34 -30 51 -29 175 11 94 30 107
37 119 65 8 17 18 31 22 31 9 0 52 -131 45 -137 -2 -3 -17 2 -32 10 -25 13
-35 12 -128 -19 -126 -43 -182 -44 -227 -7 -84 71 -93 225 -17 275 13 8 73 32
134 52 92 30 113 41 123 63 16 34 23 24 54 -69z m-7495 2 c23 -38 42 -75 42
-81 0 -18 -783 -2953 -790 -2962 -3 -4 -27 50 -52 120 -94 261 -162 552 -199
850 l-22 172 489 985 c269 542 489 986 490 986 0 0 20 -31 42 -70z m-1537 2
c8 -25 23 -32 150 -74 117 -39 145 -45 165 -36 13 6 27 9 30 5 7 -7 -45 -167
-54 -167 -4 0 -14 13 -23 29 -14 24 -36 35 -154 74 -130 44 -139 45 -166 31
-35 -17 -35 -12 -8 63 12 32 26 68 30 81 11 29 18 28 30 -6z m2569 -1012 c197
-536 360 -980 362 -986 4 -14 -224 -344 -234 -338 -4 3 -8 14 -8 24 0 55 -79
250 -182 448 -61 120 -140 273 -174 342 l-63 125 -76 516 c-64 435 -74 520
-64 548 10 28 9 36 -9 60 -11 15 -24 56 -30 92 l-10 64 57 61 c51 55 57 58 64
40 5 -12 170 -460 367 -996z m5409 931 c161 -25 246 -43 252 -52 18 -30 120
-351 154 -487 67 -267 115 -622 115 -850 0 -95 -2 -104 -17 -99 -32 8 -1135
436 -1141 442 -4 4 133 750 180 977 l9 47 92 29 c51 17 97 30 102 31 6 0 120
-17 254 -38z m-6303 -80 l24 -19 -32 -11 c-37 -13 -42 -10 -34 24 8 30 11 31
42 6z m5389 -113 c-3 -13 -37 -171 -76 -353 -39 -181 -72 -332 -75 -334 -3 -3
-992 372 -1018 387 -8 5 1123 319 1157 321 13 1 16 -4 12 -21z m-7070 -53 c14
-13 25 -36 25 -50 0 -25 1 -25 38 15 42 44 56 47 107 26 41 -18 65 -60 65
-118 0 -48 -50 -268 -61 -268 -4 0 -11 9 -14 20 -9 27 -20 32 -172 71 -117 30
-134 32 -157 20 -14 -8 -28 -12 -30 -10 -7 6 48 219 64 249 37 72 91 90 135
45z m6118 -406 c430 -165 783 -302 785 -303 4 -5 -224 -1066 -231 -1073 -3 -3
-104 58 -224 136 l-217 141 -57 93 c-32 51 -89 129 -126 173 -80 91 -232 228
-313 281 -43 28 -63 49 -86 92 -16 31 -76 119 -134 196 -122 162 -154 226
-174 350 -18 113 -25 215 -14 215 5 0 361 -135 791 -301z m2842 225 c177 -40
181 -40 197 -14 7 11 16 20 20 20 6 0 28 -87 28 -111 0 -5 -62 -55 -137 -110
-76 -56 -153 -115 -170 -132 -18 -17 -35 -28 -37 -26 -10 10 -39 159 -33 166
4 3 16 -2 26 -11 15 -13 24 -15 38 -7 42 22 45 34 28 110 l-17 71 -34 0 c-27
0 -37 -5 -46 -25 -17 -37 -25 -31 -38 28 -6 28 -14 61 -17 71 -4 16 -2 18 18
11 13 -4 92 -22 174 -41z m-7384 -101 c8 -75 15 -91 93 -217 20 -33 45 -84 56
-113 l20 -53 -97 -1633 c-53 -897 -98 -1634 -101 -1637 -10 -12 -237 274 -348
440 -121 180 -187 295 -283 489 l-79 162 34 127 c521 1959 679 2540 687 2526
5 -9 13 -50 18 -91z m558 -294 c18 -122 30 -223 28 -226 -15 -15 -97 261 -97
326 0 33 21 121 29 121 4 0 22 -99 40 -221z m-2104 102 c80 -36 121 -113 112
-211 -6 -71 -36 -131 -83 -167 -31 -23 -49 -28 -108 -31 -89 -4 -146 22 -191
86 -27 40 -30 51 -29 120 0 107 32 166 109 206 41 22 140 20 190 -3z m9235
-103 c1 -38 12 -135 35 -289 l7 -47 -51 -7 c-29 -4 -55 -4 -58 -1 -4 3 8 26
25 50 18 24 32 56 32 70 0 22 -3 25 -27 21 -16 -3 -86 -12 -158 -20 -120 -15
-132 -18 -151 -42 l-21 -27 -6 35 c-13 73 -19 159 -11 159 4 0 17 -9 29 -20
20 -19 24 -19 145 -5 193 23 188 22 183 49 -3 13 -26 41 -51 62 l-47 39 30 6
c17 4 45 7 63 8 31 1 32 0 32 -41z m-1345 -522 l580 -224 -1 -124 c-1 -222
-43 -512 -114 -797 -39 -153 -117 -395 -160 -496 l-19 -45 -213 138 c-117 76
-365 236 -550 357 -195 125 -338 224 -338 233 0 8 16 97 35 197 l35 182 56 84
c31 46 74 120 96 164 32 65 38 87 33 115 -4 19 -9 69 -12 110 -4 66 -8 78 -33
101 l-28 26 21 101 c11 56 23 102 26 102 3 0 267 -101 586 -224z m-6105 167
c0 -4 22 -118 50 -253 27 -136 68 -359 90 -496 45 -276 55 -318 142 -614 67
-229 108 -324 166 -391 42 -47 115 -92 170 -104 17 -3 32 -9 32 -12 0 -3 68
-461 150 -1018 83 -557 150 -1017 150 -1024 0 -12 -92 32 -225 107 -124 70
-379 241 -500 336 -121 95 -387 335 -410 369 -12 19 -2 224 78 1565 51 848 95
1542 99 1542 5 0 8 -3 8 -7z m-1788 -93 c84 0 92 -6 59 -49 -17 -22 -17 -24 1
-59 47 -92 0 -219 -97 -263 -144 -66 -305 41 -305 202 0 49 28 139 45 145 8 3
31 -4 52 -17 l37 -23 -47 -41 c-58 -51 -60 -74 -9 -125 29 -29 49 -40 85 -45
94 -14 172 22 195 89 18 56 9 72 -41 79 -36 5 -46 2 -69 -20 -15 -15 -30 -24
-33 -22 -2 3 -2 44 2 92 6 85 6 86 27 72 14 -10 46 -15 98 -15z m9186 -31
c151 -74 142 -340 -13 -399 -40 -15 -123 -16 -168 -1 -45 15 -102 78 -116 128
-33 119 7 227 104 277 45 23 139 21 193 -5z m-2720 -703 c83 -54 155 -102 158
-107 5 -8 -74 -401 -93 -464 -6 -18 -8 -17 -19 10 -7 17 -45 127 -83 245 -59
181 -87 258 -159 430 -5 13 -3 13 18 -1 14 -9 94 -60 178 -113z m-2982 -345
c31 -138 60 -212 155 -386 188 -348 246 -498 256 -656 7 -111 -7 -160 -104
-353 -69 -137 -77 -149 -85 -126 -55 145 -468 1273 -468 1279 0 4 43 43 96 86
91 75 95 80 89 109 -21 98 -22 260 -5 436 1 8 10 -50 21 -129 10 -79 31 -196
45 -260z m4138 -404 c281 -181 515 -334 520 -338 19 -17 -141 -330 -280 -549
-80 -128 -217 -315 -313 -430 -103 -123 -303 -331 -315 -328 -6 2 -114 108
-240 235 l-228 233 142 747 c78 412 144 758 147 771 5 22 6 22 31 6 14 -9 255
-165 536 -347z m-4198 -553 c134 -362 243 -668 244 -678 0 -10 -20 -71 -44
-135 -90 -237 -210 -671 -281 -1016 -21 -99 -39 -182 -41 -184 -8 -9 -450 156
-476 178 -7 6 -321 2102 -316 2105 2 1 28 9 58 19 99 33 382 207 545 336 28
22 54 39 59 37 5 -1 119 -299 252 -662z m2657 360 c62 -107 147 -222 233 -313
l67 -72 -18 -85 -18 -85 -227 233 -227 233 29 35 c16 19 45 59 65 88 20 28 39
52 42 52 3 0 28 -39 54 -86z m1052 -1551 c-149 -134 -547 -424 -562 -409 -3 3
6 47 20 98 14 51 51 226 81 388 31 162 61 319 67 349 l11 54 217 -217 216
-218 -50 -45z m930 109 c82 -57 125 -140 111 -215 -15 -79 -124 -157 -199
-143 -78 15 -164 95 -187 176 -14 50 5 113 51 160 64 66 148 75 224 22z
m-6824 -60 c72 -46 129 -126 129 -182 0 -12 -13 -35 -29 -51 -26 -25 -37 -29
-86 -29 -31 0 -90 7 -131 16 -42 8 -78 14 -80 12 -2 -2 17 -27 41 -55 38 -43
52 -52 90 -58 26 -3 45 -10 43 -15 -7 -17 -91 -81 -98 -73 -126 140 -190 216
-190 227 0 11 23 13 123 9 139 -6 188 5 220 49 17 23 19 33 11 55 -9 26 -14
28 -64 29 -30 1 -58 2 -62 3 -9 1 22 91 31 91 4 0 27 -13 52 -28z m6369 -334
c26 -28 25 -62 -1 -104 l-20 -33 28 14 c48 26 98 19 127 -16 50 -59 23 -144
-66 -213 -33 -24 -98 -56 -116 -56 -10 0 -32 89 -23 94 3 2 30 -1 60 -7 50
-11 54 -10 72 12 26 31 24 73 -3 98 -33 29 -53 34 -88 21 -38 -13 -61 2 -41
26 19 22 16 74 -4 96 -23 26 -59 26 -85 0 -17 -17 -20 -28 -14 -70 4 -28 3
-50 -1 -50 -25 0 -85 25 -85 35 0 27 67 110 114 142 59 40 114 45 146 11z
m-5942 -92 c31 -16 74 -61 91 -93 6 -12 11 -44 11 -71 0 -93 -98 -199 -193
-209 -96 -11 -197 77 -197 171 0 72 60 161 135 200 37 20 117 21 153 2z m5532
-248 c81 -41 138 -145 127 -230 -7 -50 -39 -92 -93 -124 -38 -22 -54 -26 -100
-22 -67 6 -114 40 -157 116 -50 90 -36 181 36 236 67 51 119 58 187 24z
m-5133 -68 c62 -27 133 -102 133 -140 0 -74 -42 -98 -197 -114 l-113 -11 60
-41 c55 -37 64 -41 100 -34 22 4 43 4 45 0 4 -6 -36 -70 -62 -99 -6 -8 -253
164 -253 176 0 10 22 16 145 40 136 26 216 103 167 163 l-18 23 -53 -18 c-29
-9 -55 -15 -58 -11 -3 3 -2 26 1 51 7 43 9 45 34 39 15 -4 46 -15 69 -24z
m4643 -235 c34 -36 24 -114 -28 -228 l-41 -88 68 36 c60 32 70 41 80 75 6 22
16 40 21 40 14 0 63 -101 53 -110 -21 -20 -264 -141 -272 -136 -5 3 4 47 20
98 35 110 45 183 30 220 -14 36 -54 62 -85 54 -21 -5 -26 -14 -32 -54 -3 -26
-9 -50 -11 -55 -5 -9 -83 33 -83 45 0 17 77 82 124 104 68 32 125 32 156 -1z
m-4105 -92 c30 -15 54 -32 52 -37 -2 -6 -72 -33 -155 -60 -84 -28 -152 -53
-152 -56 0 -7 111 -63 115 -58 1 2 10 18 19 36 19 37 27 39 67 15 34 -20 34
-24 13 -64 -8 -17 -14 -32 -12 -34 2 -1 18 -10 36 -19 17 -9 32 -21 32 -27 0
-18 -30 -21 -55 -5 -31 20 -32 20 -45 -5 -9 -16 -8 -26 5 -46 9 -13 15 -27 12
-29 -6 -7 -177 79 -177 88 0 5 13 8 30 8 28 0 57 30 46 48 -2 4 -36 23 -75 42
-42 20 -70 40 -69 47 2 10 237 177 255 182 2 1 27 -11 58 -26z"/>
<path d="M11216 17014 c-9 -42 -15 -79 -12 -81 2 -3 29 -2 60 2 l55 7 -37 74
c-20 41 -39 74 -43 74 -3 0 -13 -34 -23 -76z"/>
<path d="M11749 17148 c-4 -9 -25 -324 -23 -327 2 -2 24 -4 49 -4 80 0 125 63
125 175 0 76 -24 122 -75 144 -30 12 -73 19 -76 12z"/>
<path d="M12306 17044 c-50 -50 -73 -193 -41 -254 30 -58 103 -69 147 -22 29
29 58 116 58 169 0 109 -98 173 -164 107z"/>
<path d="M13022 16727 c-29 -78 -52 -147 -52 -154 0 -17 65 -36 99 -28 36 8
85 59 107 110 20 48 22 121 5 153 -14 25 -67 62 -91 62 -10 0 -32 -46 -68
-143z"/>
<path d="M8473 16099 c-18 -12 -33 -23 -33 -26 0 -3 46 -63 102 -133 l102
-128 27 20 c58 44 63 129 12 202 -59 84 -141 109 -210 65z"/>
<path d="M7955 15601 c-25 -11 -51 -40 -59 -68 -22 -70 114 -203 207 -203 43
0 83 31 92 69 20 91 -155 237 -240 202z"/>
<path d="M14843 15562 l-72 -37 41 -43 c22 -24 43 -41 46 -38 11 11 70 156 64
156 -4 -1 -39 -18 -79 -38z"/>
<path d="M15460 14754 c-30 -8 -61 -17 -68 -19 -10 -4 -6 -18 14 -55 15 -28
31 -49 35 -48 8 3 99 125 99 133 0 7 -19 5 -80 -11z"/>
<path d="M7305 14705 c-14 -13 -25 -29 -25 -34 0 -6 30 -27 66 -47 64 -36 67
-36 80 -19 22 30 16 64 -15 96 -36 36 -73 37 -106 4z"/>
<path d="M6861 13573 c-12 -10 -23 -31 -24 -47 -2 -27 2 -30 48 -42 68 -18 74
-18 81 11 9 38 -3 70 -31 83 -35 16 -49 15 -74 -5z"/>
<path d="M7031 13543 c-12 -10 -25 -33 -31 -51 -10 -37 -8 -39 89 -62 60 -14
71 -8 71 42 0 40 -10 57 -41 73 -37 20 -62 19 -88 -2z"/>
<path d="M15914 13399 c3 -17 6 -37 6 -43 0 -6 4 -17 9 -25 7 -11 23 -4 75 34
77 57 73 65 -28 65 l-68 0 6 -31z"/>
<path d="M6779 13077 c-64 -43 -60 -120 10 -161 42 -24 167 -34 211 -16 71 29
91 101 42 150 -55 54 -200 69 -263 27z"/>
<path d="M15984 12501 c-72 -33 -94 -93 -54 -143 30 -39 70 -51 159 -47 61 3
86 9 108 25 61 45 66 116 11 157 -40 30 -168 35 -224 8z"/>
<path d="M14850 9470 c-11 -11 -20 -25 -20 -30 0 -50 93 -152 175 -192 42 -21
48 -21 73 -7 19 10 28 24 30 47 3 28 -5 41 -59 97 -59 62 -126 105 -162 105
-9 0 -26 -9 -37 -20z"/>
<path d="M8605 8986 c-35 -16 -126 -109 -149 -154 -32 -62 -12 -112 45 -112
22 0 44 13 81 48 100 92 135 182 86 216 -27 19 -25 19 -63 2z"/>
<path d="M14020 8731 c-23 -43 -3 -104 60 -186 51 -66 98 -93 134 -77 41 18
43 54 8 125 -43 87 -113 157 -158 157 -23 0 -37 -6 -44 -19z"/>
<path d="M9940 18890 c-69 -33 -129 -61 -133 -62 -5 -2 6 -46 24 -98 68 -203
44 -391 -67 -527 l-35 -43 31 0 c53 0 221 41 320 77 175 65 318 148 475 274
l79 64 -59 7 c-161 18 -351 147 -466 317 -19 28 -36 50 -39 50 -3 0 -61 -27
-130 -59z"/>
<path d="M12879 18892 c-134 -178 -302 -293 -447 -308 l-63 -7 23 -25 c66 -71
268 -205 398 -265 138 -63 364 -127 447 -127 24 0 24 0 -11 46 -19 25 -44 65
-56 88 -23 49 -50 164 -49 216 0 61 26 184 52 249 l25 63 -116 55 c-175 82
-154 81 -203 15z"/>
<path d="M11575 13980 c-7 -11 63 -45 73 -36 3 3 -3 15 -13 26 -19 21 -50 26
-60 10z"/>
<path d="M11435 13815 c-49 -23 -95 -57 -95 -69 0 -16 41 -3 85 26 64 42 127
44 202 5 100 -52 107 -23 8 34 -65 37 -129 39 -200 4z"/>
<path d="M11473 13720 c-56 -22 -10 -40 94 -37 75 2 87 12 40 32 -40 17 -100
19 -134 5z"/>
<path d="M11680 12325 c42 -51 261 -182 480 -288 446 -214 677 -458 699 -736
l7 -86 14 55 c24 87 18 231 -11 310 -47 124 -142 237 -277 329 -79 53 -141 83
-422 204 -135 58 -303 133 -374 166 -71 34 -123 54 -116 46z"/>
<path d="M11641 9468 c-89 -432 -94 -881 -15 -1318 52 -284 167 -637 285 -872
l40 -80 82 7 c45 4 101 10 125 14 l42 6 -23 35 c-108 158 -235 426 -318 668
-108 316 -162 583 -199 982 -14 149 -14 484 0 579 6 41 9 76 7 78 -3 2 -14
-43 -26 -99z"/>
<path d="M17490 7148 c-75 -9 -100 -20 -100 -43 0 -7 -32 -76 -71 -154 -39
-78 -69 -145 -66 -147 12 -13 117 -34 167 -34 l55 0 72 93 c40 50 109 132 154
180 45 48 79 91 75 94 -20 20 -167 26 -286 11z"/>
<path d="M9169 6630 c-239 -22 -462 -134 -599 -303 -64 -78 -144 -238 -171
-342 -27 -103 -36 -320 -19 -436 54 -371 283 -637 630 -731 73 -20 109 -23
260 -23 151 0 187 3 260 23 272 74 482 259 580 513 98 255 100 557 6 791 -41
102 -88 170 -181 263 -104 105 -209 166 -360 210 -69 20 -289 50 -315 44 -3
-1 -44 -5 -91 -9z m197 -201 c43 -16 75 -39 124 -89 170 -170 251 -493 209
-835 -33 -265 -123 -437 -265 -502 -50 -23 -66 -25 -142 -21 -69 4 -98 10
-139 31 -167 86 -276 321 -303 650 -18 227 17 458 88 592 38 71 127 158 182
178 67 23 177 21 246 -4z"/>
<path d="M14503 6629 c-389 -37 -675 -271 -775 -634 -19 -69 -22 -105 -22
-270 0 -205 8 -261 60 -394 47 -116 103 -202 193 -292 116 -116 229 -180 398
-225 99 -27 388 -27 488 0 102 28 218 80 307 139 71 46 78 54 73 77 -6 24 -52
110 -59 110 -2 0 -23 -11 -47 -24 -92 -52 -227 -89 -339 -94 -122 -5 -191 7
-276 47 -79 38 -133 87 -189 171 -133 201 -178 543 -109 830 23 94 86 220 137
272 23 24 70 58 102 74 51 24 75 30 153 32 140 6 218 -32 278 -133 27 -47 54
-156 54 -224 l0 -44 78 7 c42 4 94 11 115 17 33 9 37 13 37 42 1 55 19 297 26
342 l6 43 -47 21 c-194 86 -447 129 -642 110z"/>
<path d="M17299 6630 c-385 -35 -677 -283 -771 -656 -32 -127 -32 -388 0 -517
43 -171 109 -294 221 -411 162 -168 341 -242 611 -253 292 -12 515 69 695 252
119 121 195 264 237 446 32 143 30 378 -5 511 -80 304 -304 525 -610 602 -56
14 -250 38 -282 34 -5 0 -49 -4 -96 -8z m196 -201 c143 -54 269 -242 321 -483
34 -154 29 -429 -12 -594 -21 -86 -83 -216 -128 -269 -116 -134 -331 -139
-470 -12 -94 85 -155 207 -197 388 -29 124 -37 431 -15 559 38 218 135 369
269 419 53 19 169 16 232 -8z"/>
<path d="M12640 6621 l-34 -6 -282 -680 c-156 -374 -299 -717 -319 -762 -43
-96 -92 -157 -140 -174 -41 -15 -45 -24 -52 -116 l-6 -72 273 -3 273 -3 -7 70
c-9 103 -12 111 -57 124 -76 23 -99 107 -59 214 l20 54 73 7 c39 3 181 9 314
13 l243 6 32 -69 c39 -86 48 -166 23 -194 -10 -11 -35 -25 -56 -32 -45 -13
-49 -21 -56 -118 l-6 -75 407 0 406 0 0 50 c0 102 -8 123 -55 144 -23 10 -51
31 -62 47 -41 58 -133 253 -429 909 l-302 670 -53 1 c-30 1 -70 -1 -89 -5z
m-47 -641 c19 -58 74 -195 121 -305 48 -110 90 -206 93 -212 4 -10 -48 -13
-240 -13 l-246 0 23 63 c13 34 56 143 94 242 39 99 81 215 93 257 13 43 24 76
25 75 2 -1 18 -50 37 -107z"/>
<path d="M3423 6540 c7 -99 11 -107 58 -113 47 -6 82 -27 106 -64 17 -25 18
-73 21 -618 2 -412 0 -606 -8 -642 -14 -64 -51 -99 -114 -108 -52 -8 -55 -13
-63 -115 l-6 -75 428 0 428 0 -6 75 c-8 102 -11 107 -63 115 -54 8 -100 44
-115 93 -8 26 -13 194 -16 543 -5 517 2 681 31 737 15 29 76 62 115 62 32 0
44 28 49 108 l4 77 -427 0 -428 0 6 -75z"/>
<path d="M4464 6541 c9 -93 18 -111 56 -111 54 0 109 -30 140 -76 l30 -43 0
-523 c0 -600 -6 -671 -64 -737 -24 -27 -91 -60 -122 -61 -28 0 -34 -16 -41
-110 l-6 -75 317 0 316 0 0 55 c0 30 -3 71 -6 92 -6 33 -9 37 -48 42 -99 15
-141 73 -156 218 -5 51 -10 263 -10 472 0 302 3 376 13 368 6 -6 221 -293 477
-637 l465 -626 85 5 c47 3 95 8 108 12 l22 6 0 697 c0 695 4 791 36 852 17 34
53 59 97 68 28 6 33 12 39 46 4 22 7 63 7 90 l1 50 -301 0 -301 0 6 -74 c9
-91 18 -111 54 -111 15 0 48 -10 72 -22 68 -35 89 -86 100 -240 11 -150 13
-638 3 -638 -5 1 -186 244 -404 541 l-396 540 -298 2 -297 2 6 -74z"/>
<path d="M6404 6548 c9 -96 19 -118 56 -118 54 0 109 -30 141 -76 l30 -44 -3
-568 c-4 -623 -6 -637 -65 -694 -31 -29 -91 -58 -122 -58 -15 0 -22 -11 -30
-50 -6 -28 -11 -70 -11 -93 l0 -42 315 0 315 0 0 55 c0 30 -3 71 -6 92 -6 33
-9 37 -48 42 -103 16 -142 75 -157 240 -5 55 -8 265 -7 466 l3 365 478 -639
478 -639 82 6 c45 4 92 9 105 13 l22 6 0 692 c0 399 5 720 10 759 16 108 47
151 123 166 28 6 33 12 39 46 4 22 7 63 7 90 l1 50 -301 0 -301 0 7 -75 c9
-92 17 -110 53 -110 15 0 48 -10 72 -22 66 -33 88 -85 100 -229 11 -136 13
-649 3 -649 -5 1 -186 244 -404 541 l-396 540 -298 2 -297 2 6 -67z"/>
<path d="M10263 6540 c6 -90 13 -110 38 -110 39 0 98 -77 163 -213 116 -239
394 -913 561 -1356 l28 -74 86 6 c106 7 118 11 135 51 138 323 269 639 403
975 90 228 176 437 189 463 33 65 88 125 130 140 41 14 44 23 51 118 l6 75
-277 0 -277 0 7 -70 c9 -95 16 -111 54 -118 17 -4 42 -19 55 -33 39 -42 34
-114 -16 -260 -71 -206 -193 -514 -284 -719 l-27 -59 -68 204 c-38 113 -114
320 -170 460 -82 205 -103 266 -104 309 -1 52 1 56 33 78 19 13 44 23 57 23
31 0 34 7 42 102 l7 83 -414 0 -414 0 6 -75z"/>
<path d="M15434 6542 c8 -93 16 -108 65 -116 50 -8 96 -46 113 -94 19 -53 19
-1177 0 -1239 -16 -53 -60 -90 -116 -98 -50 -8 -52 -11 -62 -121 l-6 -69 426
0 426 0 -1 60 c-2 102 -9 118 -52 127 -57 12 -95 35 -114 71 -17 30 -18 78
-18 647 0 667 -1 650 55 692 14 10 45 22 70 26 52 9 57 21 59 122 l1 65 -426
0 -427 0 7 -73z"/>
<path d="M18505 6565 c17 -141 9 -129 90 -140 42 -6 56 -14 93 -52 l42 -46 0
-547 c0 -352 -4 -567 -11 -605 -21 -113 -67 -166 -157 -181 -39 -6 -41 -8 -47
-48 -3 -22 -7 -62 -8 -89 l-2 -47 313 -3 312 -2 0 70 c0 98 -5 112 -45 118
-54 9 -103 37 -124 71 -36 57 -41 135 -41 575 l0 425 477 -638 477 -639 80 6
c45 4 91 9 104 13 l22 6 0 667 c0 387 4 703 10 755 16 134 44 179 122 195 38
8 46 27 47 121 l1 65 -299 0 -300 0 6 -65 c10 -106 14 -114 61 -122 81 -14
125 -50 149 -122 13 -42 17 -113 20 -416 4 -287 2 -362 -8 -353 -6 6 -188 251
-403 543 l-391 532 -298 1 -298 2 6 -50z"/>
<path d="M14218 4360 l-17 -40 28 0 c20 0 36 11 60 40 l32 40 -43 0 c-41 0
-44 -2 -60 -40z"/>
<path d="M5340 4262 c0 -9 9 -23 20 -30 19 -11 20 -23 20 -162 0 -139 -1 -150
-20 -160 -11 -6 -20 -19 -20 -28 0 -16 11 -18 95 -17 92 0 95 1 95 23 0 12 -6
22 -14 22 -22 0 -26 24 -26 170 0 123 2 140 18 152 10 7 21 21 25 31 6 15 -3
17 -93 17 -89 0 -100 -2 -100 -18z"/>
<path d="M5630 4270 c0 -5 7 -15 15 -22 45 -38 45 -37 45 -152 0 -136 -7 -177
-31 -183 -18 -5 -32 -29 -24 -42 2 -5 36 -8 75 -8 60 0 70 2 70 17 0 10 -11
25 -25 34 -24 16 -25 20 -25 128 l0 113 108 -148 c92 -126 110 -146 132 -144
l25 2 3 178 c2 164 4 178 22 189 11 7 20 21 20 30 0 16 -10 18 -70 18 -60 0
-70 -2 -70 -18 0 -9 10 -22 22 -27 16 -7 25 -22 30 -50 9 -54 10 -145 1 -145
-5 0 -47 54 -95 120 l-88 120 -70 0 c-38 0 -70 -4 -70 -10z"/>
<path d="M6204 4261 c-37 -23 -59 -77 -50 -125 7 -39 54 -86 116 -116 79 -39
100 -71 64 -100 -42 -35 -114 0 -114 56 0 21 -5 24 -35 24 l-35 0 0 -53 c0
-49 3 -55 28 -67 15 -7 54 -15 88 -17 117 -10 196 53 179 143 -9 48 -32 72
-120 117 -60 32 -81 48 -83 65 -10 71 97 68 110 -3 2 -15 11 -20 33 -20 29 0
30 2 33 46 3 45 1 47 -29 58 -52 18 -149 14 -185 -8z"/>
<path d="M6536 4230 c-4 -28 -4 -55 -1 -60 13 -21 43 -9 55 20 13 32 37 50 64
50 14 0 16 -20 16 -139 0 -154 -7 -188 -42 -193 -14 -2 -24 -11 -26 -24 -3
-21 0 -21 112 -20 113 1 116 2 116 24 0 15 -6 22 -20 22 -33 0 -40 33 -40 184
0 133 2 146 18 146 27 0 59 -27 66 -55 4 -16 13 -25 26 -25 27 0 33 15 25 70
l-7 50 -178 0 -177 0 -7 -50z"/>
<path d="M7000 4262 c0 -9 9 -23 20 -30 19 -11 20 -23 20 -163 0 -142 -1 -151
-20 -156 -12 -3 -20 -14 -20 -27 0 -21 4 -22 95 -21 92 0 95 1 95 23 0 12 -6
22 -14 22 -22 0 -26 24 -26 171 0 128 2 140 20 151 11 7 20 21 20 30 0 16 -11
18 -95 18 -84 0 -95 -2 -95 -18z"/>
<path d="M7288 4240 c-1 -22 -2 -48 -2 -57 -1 -25 42 -30 51 -6 10 29 45 63
65 63 17 0 18 -12 18 -153 0 -158 -4 -177 -42 -177 -10 0 -19 -4 -19 -10 -6
-35 -4 -35 114 -35 112 0 118 1 115 20 -2 11 -12 21 -23 24 -11 2 -23 8 -27
15 -4 6 -8 80 -8 164 0 144 1 152 19 152 25 0 49 -24 57 -56 6 -23 29 -31 49
-16 6 4 9 30 7 60 l-4 52 -184 0 -184 0 -2 -40z"/>
<path d="M7760 4262 c0 -9 9 -23 20 -30 18 -11 20 -23 21 -125 1 -196 26 -238
142 -245 74 -4 125 18 146 63 9 19 16 77 19 162 4 113 7 135 23 149 36 33 24
44 -46 44 -55 0 -65 -3 -65 -18 0 -9 9 -23 20 -30 18 -11 20 -23 20 -145 0
-156 -8 -177 -69 -177 -66 0 -75 21 -79 170 -3 119 -2 130 17 149 42 42 30 51
-74 51 -84 0 -95 -2 -95 -18z"/>
<path d="M8255 4230 c-8 -55 -2 -70 25 -70 13 0 22 9 26 25 7 28 39 55 66 55
16 0 18 -13 18 -141 0 -149 -6 -174 -46 -189 -14 -6 -24 -18 -24 -28 0 -18 9
-19 115 -18 112 1 115 2 115 24 0 15 -6 22 -18 22 -38 0 -42 19 -42 177 0 140
2 153 18 153 27 0 59 -27 66 -55 4 -16 13 -25 26 -25 27 0 32 13 24 70 l-7 50
-177 0 -178 0 -7 -50z"/>
<path d="M8835 4264 c-107 -55 -144 -188 -85 -303 52 -104 208 -132 314 -58
16 11 40 45 54 75 21 46 24 64 19 118 -9 121 -81 184 -208 184 -38 0 -76 -6
-94 -16z m143 -47 c53 -57 68 -175 32 -254 -24 -54 -57 -71 -100 -53 -81 34
-107 236 -40 308 28 30 80 29 108 -1z"/>
<path d="M9430 4263 c0 -10 9 -24 20 -31 19 -11 20 -23 20 -162 0 -139 -1
-150 -20 -160 -11 -6 -20 -20 -20 -32 0 -20 2 -21 127 -13 137 7 181 20 226
63 59 57 72 202 24 273 -42 63 -75 74 -234 77 -134 4 -143 3 -143 -15z m249
-49 c64 -54 70 -216 9 -281 -24 -25 -76 -31 -96 -11 -13 13 -18 299 -5 311 15
15 63 5 92 -19z"/>
<path d="M9940 4269 c0 -7 11 -22 25 -35 24 -22 25 -27 25 -163 0 -139 0 -141
-25 -157 -14 -9 -25 -25 -25 -35 0 -17 11 -18 167 -16 l168 2 8 53 c10 59 10
57 -19 66 -17 5 -24 1 -34 -24 -15 -37 -37 -50 -85 -50 -42 0 -55 23 -55 96 0
40 2 44 25 44 15 0 31 -9 41 -25 9 -14 24 -25 33 -25 13 0 16 12 16 70 0 65
-1 70 -22 70 -13 0 -24 -8 -28 -19 -6 -21 -38 -36 -55 -26 -5 3 -10 37 -10 76
l0 69 36 0 c45 0 73 -15 84 -46 7 -17 17 -24 36 -24 25 0 26 2 20 38 -3 20 -6
45 -6 55 0 15 -14 17 -160 17 -113 0 -160 -3 -160 -11z"/>
<path d="M10580 4262 c0 -9 9 -23 20 -30 18 -11 20 -23 20 -151 0 -147 -4
-171 -26 -171 -8 0 -14 -10 -14 -23 0 -22 3 -23 95 -22 92 0 95 1 95 23 0 12
-6 22 -14 22 -22 0 -26 24 -26 171 0 128 2 140 20 151 11 7 20 21 20 30 0 16
-11 18 -95 18 -84 0 -95 -2 -95 -18z"/>
<path d="M10870 4266 c0 -7 11 -21 25 -30 25 -16 25 -18 25 -161 0 -143 0
-145 -25 -161 -14 -9 -25 -25 -25 -35 0 -16 8 -18 72 -16 81 2 92 13 53 49
-25 23 -26 27 -23 128 l3 104 105 -142 c90 -122 108 -142 130 -139 l25 2 3
176 c2 161 4 178 22 194 38 34 26 45 -50 45 -61 0 -70 -2 -70 -18 0 -11 11
-24 25 -30 24 -11 25 -15 25 -104 0 -53 -4 -88 -9 -82 -5 5 -45 60 -91 122
l-82 112 -69 0 c-52 0 -69 -3 -69 -14z"/>
<path d="M11370 4270 c0 -5 14 -22 30 -37 l30 -26 0 -117 c0 -119 -12 -180
-35 -180 -14 0 -28 -27 -20 -39 2 -5 36 -8 75 -8 60 0 70 2 70 17 0 10 -11 25
-25 34 -24 16 -25 20 -25 128 l0 111 108 -147 c93 -126 110 -146 132 -144 l25
3 3 178 c2 164 4 178 22 189 11 7 20 21 20 30 0 16 -10 18 -70 18 -60 0 -70
-2 -70 -18 0 -9 10 -22 23 -27 20 -9 22 -17 25 -105 l3 -95 -91 123 -90 122
-70 0 c-40 0 -70 -4 -70 -10z"/>
<path d="M11995 4267 c-17 -8 -45 -30 -62 -50 -82 -94 -62 -258 39 -324 35
-24 52 -28 112 -28 92 0 140 24 181 90 26 42 30 58 30 119 0 88 -22 137 -78
174 -34 22 -54 27 -116 30 -48 1 -87 -3 -106 -11z m149 -57 c68 -82 57 -267
-19 -302 -36 -16 -87 9 -108 55 -38 79 -30 214 14 258 30 30 82 25 113 -11z"/>
<path d="M12370 4269 c0 -6 11 -25 24 -42 23 -30 118 -247 145 -330 11 -33 17
-38 39 -35 23 3 32 19 96 175 39 94 79 180 89 191 34 38 23 52 -43 52 -52 0
-60 -2 -60 -19 0 -10 7 -21 15 -25 8 -3 15 -13 15 -23 1 -21 -72 -213 -80
-213 -3 0 -15 28 -27 63 -11 34 -29 84 -39 110 -18 46 -18 49 -1 61 9 7 17 21
17 30 0 14 -14 16 -95 16 -61 0 -95 -4 -95 -11z"/>
<path d="M12966 4272 c-3 -6 -38 -86 -76 -178 -39 -92 -79 -176 -91 -187 -31
-29 -19 -39 49 -43 56 -3 62 -1 62 17 0 11 -7 22 -15 25 -9 4 -15 19 -15 35 0
28 2 29 44 29 24 0 57 3 75 6 27 6 32 3 41 -22 9 -23 8 -31 -4 -40 -9 -6 -16
-20 -16 -31 0 -18 7 -19 90 -19 81 1 90 3 90 20 0 10 -7 24 -15 30 -8 6 -51
90 -95 186 -59 131 -84 176 -99 178 -10 2 -22 -1 -25 -6z m39 -241 c6 -20 3
-21 -49 -21 l-55 0 24 65 c14 36 25 69 26 73 0 8 44 -86 54 -117z"/>
<path d="M13378 4260 c-112 -60 -140 -233 -51 -330 62 -70 177 -90 262 -46 34
18 47 65 14 51 -59 -25 -101 -28 -139 -9 -53 26 -78 79 -78 164 0 100 34 150
102 150 33 0 57 -23 67 -62 5 -19 14 -28 26 -28 21 0 25 6 33 63 5 36 3 39
-29 53 -51 21 -162 17 -207 -6z"/>
<path d="M13730 4262 c0 -9 9 -23 20 -30 19 -11 20 -23 20 -163 0 -142 -1
-151 -20 -156 -12 -3 -20 -14 -20 -27 0 -21 4 -22 95 -21 92 0 95 1 95 23 0
12 -6 22 -14 22 -22 0 -26 24 -26 171 0 128 2 140 20 151 11 7 20 21 20 30 0
16 -11 18 -95 18 -84 0 -95 -2 -95 -18z"/>
<path d="M14145 4266 c-91 -41 -136 -156 -105 -268 40 -143 234 -185 348 -75
33 32 62 106 62 156 0 76 -53 161 -117 187 -41 18 -149 17 -188 0z m139 -47
c55 -43 72 -198 29 -270 -55 -93 -156 -36 -170 95 -16 153 56 242 141 175z"/>
<path d="M14550 4260 c0 -11 4 -20 9 -20 5 0 17 -7 25 -16 13 -12 16 -40 16
-139 0 -129 -9 -175 -35 -175 -9 0 -15 -9 -15 -24 0 -22 3 -23 70 -23 79 0 89
12 45 53 -23 22 -25 29 -25 124 0 55 2 100 5 100 2 0 52 -63 110 -140 86 -114
110 -140 130 -140 l25 0 0 180 c0 169 1 181 20 192 11 7 20 21 20 30 0 16 -10
18 -70 18 -78 0 -88 -10 -43 -46 26 -21 28 -28 32 -108 1 -47 -1 -86 -5 -85
-5 0 -47 54 -94 119 l-85 119 -67 0 c-62 1 -68 -1 -68 -19z"/>
<path d="M15555 4266 c-65 -29 -115 -110 -115 -187 0 -168 147 -264 301 -198
45 20 59 36 43 51 -3 4 -26 -1 -50 -9 -54 -18 -103 -11 -132 20 -66 70 -70
210 -10 275 46 48 128 19 128 -46 0 -20 4 -23 28 -20 25 3 27 7 30 55 l3 52
-38 10 c-52 15 -152 13 -188 -3z"/>
<path d="M15890 4271 c0 -4 11 -20 25 -35 24 -26 25 -32 25 -161 0 -141 -4
-165 -26 -165 -8 0 -14 -7 -14 -15 0 -8 -1 -18 -2 -22 -2 -4 41 -8 95 -8 86
-1 97 1 97 17 0 9 -9 22 -20 28 -19 10 -20 21 -20 160 0 139 1 151 20 162 11
7 20 21 20 30 0 16 -11 18 -100 18 -55 0 -100 -4 -100 -9z"/>
<path d="M16200 4262 c0 -9 9 -23 20 -30 18 -11 20 -23 20 -151 0 -147 -4
-171 -26 -171 -8 0 -14 -10 -14 -24 l0 -24 164 0 164 1 10 51 c9 44 8 53 -6
64 -21 16 -26 14 -54 -28 -20 -30 -30 -35 -67 -38 -54 -4 -61 5 -61 81 0 50 2
57 20 57 11 0 27 -11 36 -25 9 -14 25 -25 35 -25 17 0 19 8 19 70 0 68 -1 70
-25 70 -15 0 -25 -6 -25 -15 0 -14 -29 -35 -49 -35 -7 0 -11 29 -11 75 l0 75
34 0 c36 0 86 -32 86 -56 0 -8 10 -14 25 -14 22 0 25 4 25 39 0 73 5 71 -166
71 -140 0 -154 -2 -154 -18z"/>
<path d="M16640 4262 c0 -9 10 -22 23 -27 21 -10 22 -15 25 -157 l3 -147 -26
-17 c-14 -9 -25 -24 -25 -34 0 -16 9 -18 70 -18 66 1 70 2 70 23 0 14 -7 25
-19 28 -23 6 -34 75 -29 177 l3 64 110 -147 c83 -112 115 -147 132 -147 22 0
22 2 25 181 3 158 5 182 21 193 9 7 17 21 17 30 0 13 -11 16 -65 16 -58 0 -65
-2 -65 -19 0 -11 9 -23 20 -26 26 -8 32 -34 28 -125 l-3 -74 -89 122 -90 122
-68 0 c-58 0 -68 -3 -68 -18z"/>
<path d="M17252 4259 c-62 -31 -95 -85 -100 -164 -2 -35 1 -79 8 -99 27 -82
104 -136 195 -136 50 0 126 27 140 50 14 23 -11 31 -48 15 -46 -19 -71 -19
-113 1 -46 22 -74 83 -74 162 0 104 32 152 99 152 44 0 71 -26 71 -68 0 -20 4
-23 28 -20 25 3 27 7 30 54 l3 51 -39 11 c-63 19 -151 15 -200 -9z"/>
<path d="M17600 4269 c0 -7 11 -22 25 -35 24 -22 25 -27 25 -159 0 -132 -1
-137 -25 -159 -47 -44 -35 -52 75 -52 86 1 100 3 100 17 0 9 -11 24 -25 33
-25 16 -25 18 -25 157 0 136 1 141 25 163 43 40 33 46 -75 46 -68 0 -100 -4
-100 -11z"/>
<path d="M18005 4113 c-38 -91 -80 -179 -92 -194 -37 -44 -31 -54 37 -55 53
-1 60 1 60 19 0 11 -7 25 -16 32 -11 7 -14 19 -10 32 6 17 17 21 79 26 48 3
74 1 79 -7 12 -18 9 -46 -7 -63 -30 -30 -12 -38 83 -38 78 0 92 3 92 16 0 9
-9 24 -19 33 -10 9 -54 96 -97 192 -103 229 -98 229 -189 7z m115 -100 c0 -2
-25 -3 -55 -3 -30 0 -55 2 -55 5 0 2 8 26 18 52 11 26 22 57 26 68 6 16 13 6
37 -50 16 -38 29 -71 29 -72z"/>
<path d="M15063 3939 c-26 -8 -33 -15 -33 -35 0 -15 10 -34 23 -44 l22 -19
-22 -40 c-21 -36 -21 -40 -5 -46 40 -15 105 109 85 165 -10 28 -25 32 -70 19z"/>
<path d="M3290 3600 c0 -11 6 -23 14 -26 8 -3 38 -53 66 -112 44 -91 51 -112
48 -156 -3 -44 -6 -51 -27 -56 -13 -3 -28 -15 -32 -28 -8 -22 -8 -22 111 -22
112 0 120 1 120 19 0 12 -11 25 -27 33 -24 11 -28 20 -31 61 -3 39 5 64 43
144 25 54 55 105 65 115 37 35 26 48 -40 48 -49 0 -60 -3 -60 -16 0 -9 8 -22
17 -29 16 -12 15 -18 -12 -84 -15 -39 -31 -71 -35 -71 -4 0 -19 32 -35 71 -25
65 -26 71 -11 88 32 35 20 41 -79 41 -89 0 -95 -1 -95 -20z"/>
<path d="M3930 3602 c0 -9 9 -23 20 -30 19 -11 20 -23 20 -162 0 -139 -1 -150
-20 -160 -11 -6 -20 -20 -20 -30 0 -19 8 -20 164 -20 l164 0 11 51 c12 56 10
64 -19 72 -15 4 -24 -3 -36 -28 -24 -51 -100 -69 -126 -31 -4 6 -8 37 -8 69 0
48 3 57 18 57 22 0 37 -11 45 -32 3 -10 16 -18 27 -18 18 0 20 6 20 70 0 64
-2 70 -20 70 -11 0 -24 -8 -27 -17 -8 -22 -23 -33 -45 -33 -16 0 -18 10 -18
75 l0 75 33 0 c39 0 75 -23 88 -57 7 -19 14 -23 32 -17 12 3 22 7 23 8 0 0 -2
25 -4 54 l-4 52 -159 0 c-145 0 -159 -2 -159 -18z"/>
<path d="M4390 3610 c0 -5 12 -20 26 -33 l26 -24 -12 -129 c-12 -129 -21 -162
-46 -177 -8 -4 -14 -17 -14 -27 0 -18 7 -20 70 -20 78 0 88 11 44 49 -25 22
-26 25 -20 99 14 161 11 161 84 -3 85 -190 86 -190 161 -2 34 86 58 133 62
124 4 -7 11 -58 15 -114 6 -96 6 -100 -15 -106 -13 -3 -21 -13 -21 -26 0 -20
5 -21 100 -21 110 0 122 8 76 52 -21 20 -26 38 -35 126 -17 155 -15 189 9 197
11 3 20 15 20 26 0 17 -8 19 -74 19 l-75 0 -21 -57 c-12 -32 -35 -95 -52 -140
-16 -46 -31 -83 -32 -83 -2 0 -30 63 -62 140 l-59 140 -77 0 c-43 0 -78 -4
-78 -10z"/>
<path d="M5040 3605 c0 -8 11 -25 25 -39 24 -24 25 -30 25 -156 0 -127 -1
-132 -25 -154 -14 -13 -25 -31 -25 -40 0 -14 15 -16 110 -16 104 0 110 1 110
21 0 13 -10 23 -29 30 -37 13 -41 28 -41 185 0 143 4 153 54 134 33 -12 46
-39 46 -97 0 -58 -8 -71 -46 -82 -19 -5 -29 -14 -29 -27 0 -42 101 -25 150 26
24 25 30 40 33 93 7 113 -34 137 -235 137 -101 0 -123 -3 -123 -15z"/>
<path d="M5510 3602 c0 -9 9 -23 20 -30 19 -11 20 -23 20 -162 0 -139 -1 -150
-20 -160 -11 -6 -20 -20 -20 -30 0 -19 7 -20 95 -20 103 0 113 6 75 50 -24 28
-29 120 -7 120 21 0 43 -29 76 -103 l30 -67 66 0 c63 0 65 1 65 25 0 15 -6 25
-15 25 -8 0 -26 21 -41 48 -15 26 -36 57 -47 69 -18 21 -18 21 2 28 36 11 61
54 61 104 0 98 -45 121 -230 121 -117 0 -130 -2 -130 -18z m230 -42 c14 -14
20 -33 20 -63 0 -50 -19 -73 -68 -83 l-32 -6 0 79 c0 44 3 83 7 86 13 14 54 6
73 -13z"/>
<path d="M6007 3603 c3 -10 14 -26 25 -36 16 -16 18 -35 18 -157 0 -122 -2
-141 -18 -157 -11 -10 -22 -26 -25 -35 -6 -17 6 -18 162 -18 l168 0 9 54 c10
51 9 55 -12 64 -19 9 -25 6 -45 -26 -27 -40 -67 -56 -105 -42 -22 9 -24 15
-24 75 0 63 1 66 23 63 12 -2 26 -13 32 -25 6 -14 18 -23 32 -23 22 0 23 4 23
70 0 66 -1 70 -23 70 -14 0 -26 -9 -32 -22 -6 -13 -20 -24 -32 -26 -22 -3 -23
0 -23 72 0 74 1 76 24 76 43 0 77 -19 89 -50 9 -24 16 -29 32 -24 28 9 28 7
20 63 l-7 51 -159 0 c-147 0 -158 -1 -152 -17z"/>
<path d="M6450 3602 c0 -11 11 -24 25 -30 25 -12 25 -12 25 -152 0 -137 -1
-142 -25 -164 -45 -42 -34 -56 45 -56 62 0 70 2 70 19 0 10 -10 25 -22 33 -21
14 -23 25 -26 122 -2 58 0 106 5 106 4 0 54 -63 111 -140 84 -114 108 -140
128 -140 l24 0 0 175 c0 163 1 176 20 192 11 10 20 25 20 35 0 15 -9 18 -65
18 -74 0 -84 -15 -40 -56 23 -21 25 -30 25 -105 0 -65 -3 -79 -13 -71 -7 6
-48 60 -92 121 l-80 111 -67 0 c-59 0 -68 -2 -68 -18z"/>
<path d="M6960 3601 c0 -11 9 -25 20 -31 19 -10 20 -21 20 -160 0 -139 -1
-150 -20 -160 -11 -6 -20 -20 -20 -32 0 -20 3 -21 123 -16 124 5 179 19 221
56 58 52 76 201 33 276 -37 65 -79 80 -239 84 -134 4 -138 4 -138 -17z m230
-36 c54 -28 79 -116 60 -214 -15 -81 -62 -120 -118 -100 -21 8 -22 14 -22 169
l0 160 25 0 c15 0 39 -7 55 -15z"/>
<path d="M7470 3602 c0 -9 9 -23 20 -30 19 -11 20 -23 20 -162 0 -139 -1 -150
-20 -160 -11 -6 -20 -20 -20 -30 0 -19 7 -20 100 -20 109 0 121 8 75 48 -24
21 -25 25 -25 162 0 137 1 141 25 162 46 40 34 48 -75 48 -89 0 -100 -2 -100
-18z"/>
<path d="M7790 3602 c0 -9 10 -23 21 -30 20 -13 21 -19 14 -122 -8 -136 -19
-181 -44 -199 -12 -7 -21 -22 -21 -32 0 -17 8 -19 70 -19 63 0 70 2 70 20 0
10 -9 24 -20 30 -17 9 -20 21 -19 78 0 37 4 87 8 112 l8 45 39 -85 c22 -47 51
-111 65 -142 18 -44 29 -58 45 -58 17 0 30 24 79 148 l60 147 7 -65 c4 -36 10
-89 13 -118 6 -45 4 -53 -12 -59 -21 -7 -33 -22 -33 -40 0 -10 27 -13 100 -13
91 0 100 2 100 19 0 10 -10 25 -21 33 -19 12 -23 31 -37 157 l-15 143 27 24
c14 14 26 29 26 34 0 6 -35 10 -78 10 l-78 0 -49 -135 c-28 -74 -53 -135 -56
-135 -3 0 -32 61 -63 135 l-58 135 -74 0 c-64 0 -74 -2 -74 -18z"/>
<path d="M8437 3603 c3 -10 14 -26 25 -36 16 -16 18 -35 18 -157 0 -122 -2
-141 -18 -157 -11 -10 -22 -26 -25 -35 -6 -16 3 -18 93 -18 93 0 100 1 100 20
0 10 -9 24 -20 30 -19 10 -20 21 -20 160 0 139 1 151 20 162 11 7 20 21 20 30
0 16 -11 18 -100 18 -90 0 -99 -2 -93 -17z"/>
<path d="M8740 3602 c0 -9 9 -23 20 -30 19 -11 20 -23 20 -162 0 -139 -1 -150
-20 -160 -11 -6 -20 -20 -20 -30 0 -19 8 -20 164 -20 l165 0 8 48 c10 65 11
64 -14 73 -19 7 -25 3 -39 -26 -24 -51 -100 -69 -126 -31 -4 6 -8 37 -8 69 0
50 2 57 20 57 11 0 27 -11 36 -25 9 -14 25 -25 35 -25 17 0 19 8 19 70 0 62
-2 70 -19 70 -10 0 -26 -11 -35 -25 -9 -14 -25 -25 -36 -25 -18 0 -20 7 -20
76 l0 77 40 -6 c46 -6 68 -21 80 -53 6 -16 15 -20 32 -17 21 4 24 9 21 36 -10
84 5 77 -168 77 -141 0 -155 -2 -155 -18z"/>
<path d="M9180 3602 c0 -11 11 -24 25 -30 25 -12 25 -12 25 -157 0 -143 0
-145 -25 -161 -14 -9 -25 -25 -25 -35 0 -17 8 -19 76 -19 65 0 75 2 70 16 -3
9 -6 19 -6 24 0 4 -9 10 -20 13 -19 5 -20 13 -20 119 1 91 3 110 13 97 7 -8
54 -72 106 -142 73 -98 99 -127 117 -127 23 0 23 0 26 174 2 142 6 177 19 192
40 46 34 54 -41 54 -63 0 -70 -2 -70 -19 0 -11 9 -23 20 -26 26 -8 32 -34 28
-125 l-3 -75 -89 123 -90 122 -68 0 c-59 0 -68 -2 -68 -18z"/>
<path d="M9696 3588 c-13 -80 -13 -83 17 -86 19 -2 27 1 27 13 0 20 44 65 65
65 14 0 15 -20 13 -157 l-3 -158 -27 -13 c-17 -8 -28 -21 -28 -33 0 -18 8 -19
115 -19 103 0 115 2 115 18 0 9 -14 25 -30 34 l-30 17 0 157 0 156 28 -6 c31
-8 52 -31 52 -58 0 -12 8 -18 24 -18 32 0 35 5 29 68 l-6 52 -178 0 -178 0 -5
-32z"/>
<path d="M10275 3603 c-97 -51 -136 -151 -104 -266 45 -164 304 -187 378 -35
58 121 25 245 -80 298 -48 25 -150 26 -194 3z m145 -53 c75 -80 57 -285 -26
-306 -64 -16 -114 49 -122 157 -5 75 15 151 46 169 33 19 73 11 102 -20z"/>
<path d="M10870 3602 c0 -9 9 -23 20 -30 19 -11 20 -23 20 -157 0 -133 -2
-147 -20 -162 -11 -10 -20 -25 -20 -35 0 -16 11 -18 111 -18 98 0 110 2 107
17 -2 9 -16 24 -33 33 l-30 17 -3 148 c-1 87 1 152 7 158 15 15 67 -10 80 -39
28 -63 3 -144 -45 -144 -21 0 -25 -4 -22 -22 3 -20 9 -23 51 -22 85 1 142 67
134 157 -8 93 -55 117 -232 117 -113 0 -125 -2 -125 -18z"/>
<path d="M11395 3449 c-38 -94 -80 -181 -92 -192 -13 -12 -23 -30 -23 -39 0
-15 10 -18 66 -18 63 0 65 1 58 22 -4 13 -14 28 -22 34 -9 7 -12 18 -8 32 7
20 14 22 82 22 68 0 75 -2 83 -22 6 -16 5 -26 -3 -33 -7 -6 -16 -20 -20 -33
-7 -22 -6 -22 88 -22 87 0 96 2 96 18 0 11 -8 26 -19 36 -10 9 -53 95 -96 191
-65 146 -82 175 -99 175 -18 0 -32 -27 -91 -171z m115 -96 c0 -2 -25 -3 -56
-3 -49 0 -55 2 -49 18 4 9 16 41 27 70 l21 53 29 -68 c15 -37 28 -69 28 -70z"/>
<path d="M11790 3611 c0 -6 11 -22 25 -37 24 -26 25 -32 25 -166 0 -135 -1
-139 -25 -160 -46 -40 -34 -48 70 -48 86 0 95 2 95 19 0 10 -7 24 -15 31 -10
8 -15 31 -15 67 0 80 25 69 75 -34 l40 -83 61 0 c49 0 63 3 68 17 5 12 -1 23
-19 36 -14 11 -35 37 -45 58 -11 21 -29 47 -41 58 -20 19 -20 19 -1 25 88 28
93 176 7 212 -40 16 -305 20 -305 5z m235 -56 c40 -39 28 -111 -22 -134 -49
-23 -53 -18 -53 74 0 84 0 85 25 85 14 0 37 -11 50 -25z"/>
<path d="M12445 3583 c-9 -21 -41 -99 -72 -173 -30 -74 -64 -142 -74 -152 -11
-9 -19 -26 -19 -37 0 -19 6 -21 60 -21 53 0 60 2 60 20 0 10 -7 23 -16 28 -9
5 -14 18 -12 33 3 23 7 24 80 27 77 3 77 3 84 -24 5 -19 2 -29 -10 -36 -9 -5
-16 -18 -16 -28 0 -18 7 -20 96 -20 94 0 95 0 88 22 -4 13 -13 27 -20 33 -8 5
-49 89 -92 185 -63 139 -83 176 -100 178 -16 3 -25 -5 -37 -35z m31 -160 c13
-32 24 -61 24 -65 0 -5 -22 -8 -50 -8 -27 0 -50 3 -50 8 0 14 45 131 49 127 2
-3 14 -31 27 -62z"/>
<path d="M12970 3604 c0 -9 11 -25 25 -36 25 -19 25 -22 25 -158 0 -138 0
-140 -25 -156 -14 -9 -25 -25 -25 -35 0 -18 10 -19 165 -19 185 0 171 -6 178
79 2 27 -2 35 -21 42 -20 8 -25 5 -34 -22 -19 -56 -113 -73 -132 -24 -3 9 -6
73 -6 141 0 120 1 126 25 150 46 46 36 54 -75 54 -85 0 -100 -2 -100 -16z"/>
<path d="M13514 3453 c-37 -91 -78 -179 -91 -194 -39 -46 -32 -59 37 -59 65 0
77 14 44 51 -10 11 -13 25 -9 38 6 19 14 21 80 21 72 0 75 -1 81 -26 5 -19 2
-29 -10 -36 -9 -5 -16 -18 -16 -28 0 -18 7 -20 95 -20 84 0 95 2 95 18 0 10
-8 25 -18 33 -10 9 -54 95 -98 192 -104 232 -99 232 -190 10z m64 -101 c-28
-2 -52 -1 -54 1 -3 2 4 26 14 53 10 27 22 58 26 69 6 16 13 6 35 -50 l28 -70
-49 -3z"/>
<path d="M14221 3609 c-80 -32 -124 -100 -123 -194 0 -132 78 -215 204 -215
50 0 128 26 141 47 3 5 2 14 -2 21 -6 10 -16 9 -44 -3 -110 -46 -190 24 -190
165 0 101 33 150 101 150 33 0 57 -23 67 -62 5 -21 13 -28 31 -28 20 0 24 5
26 35 1 19 2 43 2 53 1 11 -11 21 -34 29 -42 14 -145 16 -179 2z"/>
<path d="M14660 3604 c-74 -32 -112 -96 -113 -189 -1 -124 69 -205 183 -213
147 -11 238 82 228 231 -5 81 -38 135 -100 166 -53 25 -146 28 -198 5z m143
-52 c34 -35 47 -79 47 -157 0 -151 -112 -209 -171 -87 -26 53 -31 171 -10 212
37 69 87 81 134 32z"/>
<path d="M15070 3610 c0 -5 12 -20 26 -33 l26 -24 -12 -129 c-12 -129 -21
-162 -46 -177 -8 -4 -14 -17 -14 -27 0 -18 7 -20 70 -20 78 0 88 11 44 49 -25
22 -26 26 -20 94 16 166 11 166 84 2 85 -190 86 -190 161 -2 30 75 58 134 62
130 4 -5 11 -56 15 -114 6 -103 6 -106 -15 -112 -13 -3 -21 -13 -21 -26 0 -20
5 -21 100 -21 110 0 122 8 76 52 -21 20 -26 38 -35 126 -17 155 -15 189 9 197
11 3 20 15 20 26 0 17 -8 19 -74 19 l-75 0 -21 -57 c-12 -32 -35 -95 -52 -140
-16 -46 -31 -83 -32 -83 -2 0 -30 63 -62 140 l-59 140 -77 0 c-43 0 -78 -4
-78 -10z"/>
<path d="M15720 3605 c0 -8 11 -25 25 -39 24 -24 25 -30 25 -156 0 -127 -1
-132 -25 -154 -14 -13 -25 -31 -25 -40 0 -14 15 -16 110 -16 104 0 110 1 110
21 0 13 -10 23 -29 30 -37 13 -41 28 -41 185 0 143 4 153 54 134 33 -12 46
-39 46 -97 0 -58 -8 -71 -46 -82 -43 -11 -40 -45 4 -49 48 -5 117 32 136 72
23 49 21 127 -4 159 -29 37 -76 47 -217 47 -101 0 -123 -3 -123 -15z"/>
<path d="M16190 3602 c0 -9 9 -23 20 -30 19 -11 20 -23 20 -162 0 -139 -1
-150 -20 -160 -11 -6 -20 -20 -20 -30 0 -19 8 -20 165 -20 185 0 171 -6 178
79 2 26 -3 35 -21 42 -19 7 -24 4 -36 -25 -21 -51 -102 -71 -128 -32 -4 6 -8
37 -8 69 0 54 1 57 25 57 18 0 28 -7 35 -25 6 -15 17 -25 30 -25 18 0 20 6 20
70 0 64 -2 70 -20 70 -11 0 -24 -8 -27 -17 -8 -22 -23 -33 -45 -33 -16 0 -18
10 -18 75 l0 75 33 0 c39 0 75 -23 88 -57 7 -19 14 -23 32 -17 12 3 22 7 23 8
0 0 -2 25 -4 54 l-4 52 -159 0 c-145 0 -159 -2 -159 -18z"/>
<path d="M16626 3570 c-4 -28 -4 -55 -1 -60 12 -20 43 -10 54 19 13 29 55 56
72 46 12 -8 12 -281 -1 -305 -5 -10 -21 -21 -35 -24 -16 -4 -25 -13 -25 -26 0
-19 7 -20 115 -20 109 0 115 1 115 20 0 12 -10 24 -24 29 -13 5 -26 17 -30 26
-3 9 -6 79 -6 156 0 111 3 141 14 145 23 9 57 -15 68 -47 6 -18 17 -29 28 -29
27 0 33 15 25 70 l-7 50 -178 0 -177 0 -7 -50z"/>
<path d="M17090 3602 c0 -9 9 -23 20 -30 19 -11 20 -23 20 -162 0 -139 -1
-150 -20 -160 -11 -6 -20 -20 -20 -30 0 -19 7 -20 95 -20 84 0 95 2 95 18 0
10 -9 25 -20 35 -18 15 -20 29 -20 162 0 134 1 145 20 155 11 6 20 20 20 30 0
19 -7 20 -95 20 -84 0 -95 -2 -95 -18z"/>
<path d="M17377 3568 c-2 -29 -3 -56 0 -60 8 -15 53 -8 53 7 0 21 45 65 65 65
14 0 15 -20 13 -157 l-3 -156 -30 -17 c-16 -9 -31 -24 -33 -33 -3 -15 10 -17
118 -17 110 0 121 2 118 17 -2 10 -16 24 -31 31 l-27 13 0 160 c0 137 2 159
15 159 21 0 65 -45 65 -65 0 -12 8 -15 28 -13 15 2 26 6 25 11 -2 4 -3 30 -3
57 l0 50 -184 0 -183 0 -6 -52z"/>
<path d="M17840 3607 c0 -8 11 -24 25 -37 24 -23 25 -28 25 -157 0 -130 -1
-135 -25 -157 -14 -13 -25 -31 -25 -40 0 -14 14 -16 100 -16 91 0 100 2 100
19 0 10 -11 26 -25 35 -25 16 -25 18 -25 156 0 137 1 141 25 162 46 40 34 48
-75 48 -76 0 -100 -3 -100 -13z"/>
<path d="M18130 3600 c0 -10 6 -23 14 -27 18 -11 53 -82 116 -241 50 -123 55
-133 78 -130 21 3 32 23 93 173 39 93 79 179 89 190 38 40 27 55 -40 55 -65 0
-77 -14 -44 -51 15 -16 15 -22 -1 -71 -23 -68 -64 -162 -69 -157 -9 9 -76 198
-76 213 0 9 7 19 15 22 8 4 15 15 15 25 0 17 -8 19 -95 19 -88 0 -95 -2 -95
-20z"/>
<path d="M18640 3600 c0 -10 9 -24 20 -30 19 -10 20 -21 20 -155 0 -133 -2
-147 -20 -162 -11 -10 -20 -25 -20 -35 0 -16 11 -18 95 -18 88 0 95 1 95 20 0
10 -9 24 -20 30 -19 10 -20 21 -20 160 0 139 1 151 20 162 11 7 20 21 20 30 0
16 -11 18 -95 18 -88 0 -95 -1 -95 -20z"/>
<path d="M18940 3602 c0 -9 9 -23 20 -30 19 -11 20 -23 20 -162 0 -139 -1
-150 -20 -160 -11 -6 -20 -20 -20 -32 0 -20 4 -20 123 -16 141 5 197 24 241
80 35 47 50 127 35 196 -23 110 -85 142 -281 142 -106 0 -118 -2 -118 -18z
m230 -37 c35 -18 55 -53 65 -113 18 -108 -27 -205 -94 -205 -18 0 -37 6 -42
14 -10 16 -12 302 -2 312 11 11 42 8 73 -8z"/>
<path d="M19585 3583 c-9 -21 -41 -99 -72 -173 -30 -74 -64 -142 -74 -152 -11
-9 -19 -26 -19 -37 0 -19 6 -21 60 -21 53 0 60 2 60 20 0 10 -7 23 -16 28 -9
5 -14 18 -12 33 3 23 7 24 80 27 77 3 77 3 84 -24 5 -19 2 -29 -10 -36 -9 -5
-16 -18 -16 -28 0 -18 7 -20 96 -20 94 0 95 0 88 22 -4 13 -13 27 -20 33 -8 5
-49 89 -92 185 -63 139 -83 176 -100 178 -16 3 -25 -5 -37 -35z m31 -160 c13
-32 24 -61 24 -65 0 -5 -22 -8 -50 -8 -27 0 -50 3 -50 8 0 14 45 131 49 127 2
-3 14 -31 27 -62z"/>
<path d="M19930 3602 c0 -9 9 -23 20 -30 19 -11 20 -23 20 -162 0 -139 -1
-150 -20 -160 -11 -6 -20 -20 -20 -32 0 -20 4 -20 123 -16 141 5 197 24 241
80 35 47 50 127 35 196 -23 110 -85 142 -281 142 -106 0 -118 -2 -118 -18z
m230 -37 c108 -56 84 -318 -29 -318 -18 0 -37 6 -42 14 -10 16 -12 302 -2 312
11 11 42 8 73 -8z"/>
</g>
</svg>
